HIERARCHY
ROOT Hips
{
  OFFSET 44.1785 98.6001 5.20279
  CHANNELS 6 Xposition Yposition Zposition Zrotation Xrotation Yrotation
  JOINT spine
  {
    OFFSET 0 8.30104 0.477351
    CHANNELS 3 Zrotation Xrotation Yrotation
    JOINT spine1
    {
      OFFSET 0 10.4565 0
      CHANNELS 3 Zrotation Xrotation Yrotation
      JOINT spine2
      {
        OFFSET 0 10.0192 0
        CHANNELS 3 Zrotation Xrotation Yrotation
        JOINT Neck
        {
          OFFSET 0 25.7235 1.22641
          CHANNELS 3 Zrotation Xrotation Yrotation
          JOINT Head
          {
            OFFSET 0 7.77175 0
            CHANNELS 3 Zrotation Xrotation Yrotation
            End Site
            {
              OFFSET 0 18.812 -6.20394
            }
          }
        }
        JOINT RightShoulder
        {
          OFFSET -4.2188 10.82 -0.587439
          CHANNELS 3 Zrotation Xrotation Yrotation
          JOINT RightArm
          {
            OFFSET 0 14.1914 0
            CHANNELS 3 Zrotation Xrotation Yrotation
            JOINT RightArmRoll
            {
              OFFSET 0 7.16408 0
              CHANNELS 3 Zrotation Xrotation Yrotation
              JOINT RightForeArm
              {
                OFFSET 0 20.8665 0
                CHANNELS 3 Zrotation Xrotation Yrotation
                JOINT RightForeArmRoll
                {
                  OFFSET 0 8.03921 0
                  CHANNELS 3 Zrotation Xrotation Yrotation
                  JOINT RightHand
                  {
                    OFFSET 0 16.133 0
                    CHANNELS 3 Zrotation Xrotation Yrotation
                    End Site
                    {
                      OFFSET 0 0 0
                    }
                  }
                }
              }
            }
          }
        }
        JOINT LeftShoulder
        {
          OFFSET 4.2188 10.82 -0.587439
          CHANNELS 3 Zrotation Xrotation Yrotation
          JOINT LeftArm
          {
            OFFSET 0 14.1914 0
            CHANNELS 3 Zrotation Xrotation Yrotation
            JOINT LeftArmRoll
            {
              OFFSET 0 7.16408 0
              CHANNELS 3 Zrotation Xrotation Yrotation
              JOINT LeftForeArm
              {
                OFFSET 0 20.8665 0
                CHANNELS 3 Zrotation Xrotation Yrotation
                JOINT LeftForeArmRoll
                {
                  OFFSET 0 8.03921 0
                  CHANNELS 3 Zrotation Xrotation Yrotation
                  JOINT LeftHand
                  {
                    OFFSET 0 16.133 0
                    CHANNELS 3 Zrotation Xrotation Yrotation
                    End Site
                    {
                      OFFSET 0 0 0
                    }
                  }
                }
              }
            }
          }
        }
      }
    }
  }
  JOINT RightUpLeg
  {
    OFFSET -7.35773 -1.34921 -1.13182
    CHANNELS 3 Zrotation Xrotation Yrotation
    JOINT RightUpLegRoll
    {
      OFFSET 0 18.9168 0
      CHANNELS 3 Zrotation Xrotation Yrotation
      JOINT RightLeg
      {
        OFFSET 0 -23.4256 0
        CHANNELS 3 Zrotation Xrotation Yrotation
        JOINT RightLegRoll
        {
          OFFSET 0 23.5023 0
          CHANNELS 3 Zrotation Xrotation Yrotation
          JOINT RightFoot
          {
            OFFSET 0 19.5617 0
            CHANNELS 3 Zrotation Xrotation Yrotation
            JOINT RightToeBase
            {
              OFFSET 0 16.3526 0
              CHANNELS 3 Zrotation Xrotation Yrotation
              End Site
              {
                OFFSET 0.00693125 7.91943 -0.912837
              }
            }
          }
        }
      }
    }
  }
  JOINT LeftUpLeg
  {
    OFFSET 7.35773 -1.34921 -1.13182
    CHANNELS 3 Zrotation Xrotation Yrotation
    JOINT LeftUpLegRoll
    {
      OFFSET 0 18.9169 0
      CHANNELS 3 Zrotation Xrotation Yrotation
      JOINT LeftLeg
      {
        OFFSET 0 23.4255 0
        CHANNELS 3 Zrotation Xrotation Yrotation
        JOINT LeftLegRoll
        {
          OFFSET 0 23.7195 0
          CHANNELS 3 Zrotation Xrotation Yrotation
          JOINT LeftFoot
          {
            OFFSET 0 19.3444 0
            CHANNELS 3 Zrotation Xrotation Yrotation
            JOINT LeftToeBase
            {
              OFFSET 0 16.3526 0
              CHANNELS 3 Zrotation Xrotation Yrotation
              End Site
              {
                OFFSET -0.0310629 7.91943 -0.912837
              }
            }
          }
        }
      }
    }
  }
}
MOTION
Frames: 9
Frame Time: 0.00208333
59.8149 99.3486 14.0685 -0.793463 -8.19717 95.1608 -0.57053 -0.519321 0.765874 -1.14846 2.95607 1.60257 -1.1691 4.60068 1.6233 -25.0845 0.0122388 -7.4984 30.0614 5.09805 -9.95052 28.3042 -0.360577 4.27585 -171.086 66.9185 -68.4594 7.83416e-006 -9.8284e-006 -8.92462e-006 -8.6063 33.3187 4.67797 -2.52778e-006 7.02624e-006 -3.00896 8.02889 -4.95087 0.697367 -70.0319 -10.8098 6.66717 -91.64 25.3559 5.81815 5.20401e-006 1.38394e-006 -5.07624e-009 -18.6988 71.644 17.1735 2.81269e-006 1.64294e-005 3.00001 -8.02885 -4.95086 -0.697421 176.959 0.293104 9.79943 180 7.01381e-015 178.352 169.463 39.0355 -177.784 1.92193e-007 -8.29158e-006 0.709869 -17.3046 66.4897 18.3719 8.13304 25.2329 -3.48627 -170.424 14.8575 -0.971556 4.54188e-006 -4.6773e-006 -0.915752 -2.74477 -13.5048 0.523658 1.01451e-006 -3.05325e-006 -0.188758 19.2584 68.7599 -20.178 -8.13649 25.2327 3.48773 
59.8376 99.3375 14.0656 -0.768979 -8.18274 95.2041 -0.567055 -0.509618 0.767441 -1.14121 2.97552 1.60562 -1.16189 4.62013 1.62623 -25.1164 0.0800617 -7.48299 30.0805 5.065 -9.94481 28.2821 -0.336467 4.30548 -170.879 66.8302 -68.5014 7.83416e-006 -9.8284e-006 -8.92462e-006 -8.72485 33.1185 4.72685 -2.52778e-006 7.02624e-006 -3.00896 8.02889 -4.95087 0.697367 -70.046 -10.8143 6.66933 -91.6126 25.1901 5.58343 5.20401e-006 1.38394e-006 -5.07622e-009 -18.5955 71.2792 16.9767 2.81269e-006 1.64294e-005 3.00001 -8.02885 -4.95086 -0.697421 176.92 0.353973 9.77564 180 7.0138e-015 178.351 169.553 39.115 -177.813 1.92193e-007 -8.29158e-006 0.710188 -17.2989 66.4793 18.365 8.13302 25.2329 -3.48625 -170.446 14.8713 -0.967534 4.54188e-006 -4.6773e-006 -0.915922 -2.74989 -13.5683 0.523101 1.01451e-006 -3.05325e-006 -0.189775 19.2648 68.7678 -20.185 -8.13649 25.2327 3.48773 
59.8506 99.3304 14.0626 -0.744257 -8.1686 95.2474 -0.563432 -0.500063 0.768949 -1.13358 2.99467 1.60849 -1.1543 4.63928 1.62898 -25.1471 0.14976 -7.46694 30.0981 5.0314 -9.93861 28.2585 -0.314112 4.33352 -170.676 66.7449 -68.5476 7.83416e-006 -9.8284e-006 -8.92462e-006 -8.83885 32.9136 4.77275 -2.52778e-006 7.02624e-006 -3.00896 8.02889 -4.95087 0.697367 -70.0599 -10.8188 6.67153 -91.5865 25.0247 5.34637 5.20401e-006 1.38394e-006 -5.07626e-009 -18.4938 70.9045 16.7798 2.81269e-006 1.64294e-005 3.00001 -8.02885 -4.95086 -0.697421 176.884 0.414084 9.74871 180 7.0138e-015 178.351 169.646 39.1922 -177.842 1.92193e-007 -8.29158e-006 0.710348 -17.2936 66.4693 18.3584 8.13299 25.2329 -3.48624 -170.467 14.8845 -0.964263 4.54188e-006 -4.6773e-006 -0.916094 -2.75572 -13.6314 0.522453 1.01451e-006 -3.05325e-006 -0.190776 19.2711 68.7755 -20.1918 -8.13649 25.2327 3.48773 
59.8799 99.3182 14.0569 -0.719356 -8.15472 95.2908 -0.559681 -0.490652 0.770385 -1.12565 3.01354 1.61116 -1.14639 4.65816 1.63153 -25.1764 0.221198 -7.45029 30.1141 4.99719 -9.93187 28.2339 -0.293412 4.35999 -170.479 66.6631 -68.5959 7.83416e-006 -9.8284e-006 -8.92462e-006 -8.94829 32.7061 4.81586 -2.52778e-006 7.02624e-006 -3.00896 8.02889 -4.95087 0.697367 -70.0732 -10.8232 6.67369 -91.5617 24.8596 5.10797 5.20401e-006 1.38394e-006 -5.07625e-009 -18.3941 70.5217 16.5836 2.81269e-006 1.64294e-005 3.00001 -8.02885 -4.95086 -0.697421 176.85 0.473306 9.71881 180 7.0138e-015 178.35 169.739 39.267 -177.873 1.92193e-007 -8.29158e-006 0.710374 -17.2888 66.4595 18.3521 8.13296 25.2329 -3.48623 -170.489 14.8971 -0.961197 4.54188e-006 -4.6773e-006 -0.916269 -2.76175 -13.6937 0.521797 1.01451e-006 -3.05325e-006 -0.191766 19.2773 68.7832 -20.1986 -8.13649 25.2327 3.48773 
59.9172 99.3147 14.0488 -0.694309 -8.14108 95.3345 -0.55582 -0.481382 0.771739 -1.11745 3.03213 1.61362 -1.13822 4.67675 1.63386 -25.2039 0.294236 -7.43311 30.1281 4.96228 -9.92456 28.2087 -0.274265 4.38493 -170.289 66.5848 -68.6441 7.83416e-006 -9.8284e-006 -8.92462e-006 -9.0532 32.4978 4.85636 -2.52778e-006 7.02624e-006 -3.00896 8.02889 -4.95087 0.697367 -70.0858 -10.8275 6.67574 -91.5386 24.6945 4.86922 5.20401e-006 1.38394e-006 -5.07623e-009 -18.2966 70.1327 16.3889 2.81269e-006 1.64294e-005 3.00001 -8.02885 -4.95086 -0.697421 176.82 0.531507 9.68608 180 7.0138e-015 178.35 169.835 39.3393 -177.904 1.92193e-007 -8.29158e-006 0.71029 -17.2842 66.4501 18.346 8.13294 25.2329 -3.48622 -170.51 14.9092 -0.957792 4.54188e-006 -4.6773e-006 -0.916446 -2.7675 -13.7554 0.521214 1.01451e-006 -3.05325e-006 -0.192753 19.2835 68.7908 -20.2054 -8.13649 25.2327 3.48773 
59.9369 99.3004 14.0445 -0.669153 -8.12766 95.3784 -0.551868 -0.472249 0.773 -1.10907 3.05045 1.61584 -1.12985 4.69507 1.63595 -25.2293 0.368737 -7.41543 30.14 4.9266 -9.91665 28.1835 -0.256571 4.40835 -170.108 66.5104 -68.6902 7.83416e-006 -9.8284e-006 -8.92462e-006 -9.1536 32.2907 4.89445 -2.52778e-006 7.02624e-006 -3.00896 8.02889 -4.95087 0.697367 -70.0976 -10.8313 6.67762 -91.5173 24.5294 4.63111 5.20401e-006 1.38394e-006 -5.07625e-009 -18.2013 69.7394 16.1962 2.81269e-006 1.64294e-005 3.00001 -8.02885 -4.95086 -0.697421 176.792 0.588556 9.65066 180 7.0138e-015 178.349 169.931 39.409 -177.936 1.92193e-007 -8.29158e-006 0.71012 -17.2799 66.4409 18.34 8.13291 25.2329 -3.48621 -170.532 14.9206 -0.953501 4.54188e-006 -4.6773e-006 -0.916626 -2.77247 -13.8162 0.520785 1.01451e-006 -3.05325e-006 -0.193742 19.2897 68.7984 -20.2123 -8.13649 25.2327 3.48773 
59.949 99.296 14.0401 -0.643922 -8.1144 95.4229 -0.547843 -0.46325 0.774157 -1.10054 3.0685 1.61782 -1.12135 4.71312 1.63778 -25.2524 0.444564 -7.39732 30.1497 4.89007 -9.90809 28.1585 -0.240228 4.43028 -169.937 66.4401 -68.7322 7.83416e-006 -9.8284e-006 -8.92462e-006 -9.24949 32.0867 4.93032 -2.52778e-006 7.02624e-006 -3.00896 8.02889 -4.95087 0.697367 -70.1082 -10.8347 6.67926 -91.498 24.3641 4.39464 5.20401e-006 1.38394e-006 -5.07624e-009 -18.1082 69.3437 16.0061 2.81269e-006 1.64294e-005 3.00001 -8.02885 -4.95086 -0.697421 176.767 0.644319 9.6127 180 7.0138e-015 178.349 170.028 39.4758 -177.968 1.92193e-007 -8.29158e-006 0.709891 -17.2758 66.4319 18.3342 8.13288 25.2329 -3.4862 -170.554 14.9315 -0.94778 4.54188e-006 -4.6773e-006 -0.91681 -2.77617 -13.876 0.520594 1.01451e-006 -3.05325e-006 -0.194739 19.296 68.8062 -20.2193 -8.13649 25.2327 3.48773 
59.9747 99.274 14.0338 -0.618662 -8.10127 95.4679 -0.543765 -0.454381 0.775198 -1.09193 3.0863 1.61952 -1.11275 4.73092 1.63935 -25.273 0.521579 -7.37882 30.1569 4.85262 -9.89885 28.1343 -0.225136 4.45075 -169.779 66.3741 -68.7682 7.83416e-006 -9.8284e-006 -8.92462e-006 -9.34091 31.8879 4.96416 -2.52778e-006 7.02624e-006 -3.00896 8.02889 -4.95087 0.697367 -70.1175 -10.8374 6.68058 -91.4808 24.1984 4.16078 5.20401e-006 1.38394e-006 -5.07625e-009 -18.017 68.9473 15.8188 2.81269e-006 1.64294e-005 3.00001 -8.02885 -4.95086 -0.697421 176.746 0.698666 9.57236 180 7.0138e-015 178.349 170.126 39.5397 -178.001 1.92193e-007 -8.29158e-006 0.709626 -17.2719 66.4232 18.3285 8.13286 25.2329 -3.48619 -170.577 14.9418 -0.940083 4.54188e-006 -4.6773e-006 -0.916998 -2.7781 -13.9348 0.520721 1.01451e-006 -3.05325e-006 -0.195752 19.3026 68.8141 -20.2265 -8.13649 25.2327 3.48773 
60.0185 99.279 14.0333 -0.593405 -8.08825 95.5136 -0.539652 -0.445638 0.776112 -1.0833 3.10384 1.62093 -1.10414 4.74846 1.64062 -25.2906 0.599644 -7.35998 30.1614 4.81418 -9.88888 28.1114 -0.211195 4.46977 -169.633 66.3128 -68.796 7.83416e-006 -9.8284e-006 -8.92462e-006 -9.42787 31.6962 4.99616 -2.52778e-006 7.02624e-006 -3.00896 8.02889 -4.95087 0.697367 -70.1253 -10.8394 6.68153 -91.466 24.0323 3.93052 5.20401e-006 1.38394e-006 -5.07624e-009 -17.9276 68.5523 15.6346 2.81269e-006 1.64294e-005 3.00001 -8.02885 -4.95086 -0.697421 176.727 0.751462 9.52979 180 7.01379e-015 178.348 170.224 39.6005 -178.034 1.92193e-007 -8.29158e-006 0.70935 -17.268 66.4147 18.3228 8.13283 25.2329 -3.48618 -170.602 14.9515 -0.929864 4.54188e-006 -4.6773e-006 -0.91719 -2.77778 -13.9924 0.52125 1.01451e-006 -3.05325e-006 -0.196785 19.3094 68.8223 -20.2339 -8.13649 25.2327 3.48773 
